<?xml version="1.0" encoding="UTF-8" standalone="no"?>
<!DOCTYPE svg PUBLIC "-//W3C//DTD SVG 1.1//EN"
 "http://www.w3.org/Graphics/SVG/1.1/DTD/svg11.dtd">
<!-- Generated by graphviz version 2.40.1 (20161225.0304)
 -->
<!-- Title: Tree Pages: 1 -->
<svg width="1142pt" height="373pt"
 viewBox="0.00 0.00 1142.00 373.00" xmlns="http://www.w3.org/2000/svg" xmlns:xlink="http://www.w3.org/1999/xlink">
<g id="graph0" class="graph" transform="scale(1 1) rotate(0) translate(4 369)">
<title>Tree</title>
<polygon fill="#ffffff" stroke="transparent" points="-4,4 -4,-369 1138,-369 1138,4 -4,4"/>
<!-- 0 -->
<g id="node1" class="node">
<title>0</title>
<polygon fill="#78bced" stroke="#000000" points="632.5,-365 483.5,-365 483.5,-297 632.5,-297 632.5,-365"/>
<text text-anchor="middle" x="558" y="-349.8" font-family="Helvetica,sans-Serif" font-size="14.00" fill="#000000">sugar &lt;= &#45;0.239</text>
<text text-anchor="middle" x="558" y="-334.8" font-family="Helvetica,sans-Serif" font-size="14.00" fill="#000000">gini = 0.367</text>
<text text-anchor="middle" x="558" y="-319.8" font-family="Helvetica,sans-Serif" font-size="14.00" fill="#000000">samples = 5197</text>
<text text-anchor="middle" x="558" y="-304.8" font-family="Helvetica,sans-Serif" font-size="14.00" fill="#000000">value = [1258, 3939]</text>
</g>
<!-- 1 -->
<g id="node2" class="node">
<title>1</title>
<polygon fill="#bfdff7" stroke="#000000" points="488.5,-261 339.5,-261 339.5,-193 488.5,-193 488.5,-261"/>
<text text-anchor="middle" x="414" y="-245.8" font-family="Helvetica,sans-Serif" font-size="14.00" fill="#000000">sugar &lt;= &#45;0.802</text>
<text text-anchor="middle" x="414" y="-230.8" font-family="Helvetica,sans-Serif" font-size="14.00" fill="#000000">gini = 0.481</text>
<text text-anchor="middle" x="414" y="-215.8" font-family="Helvetica,sans-Serif" font-size="14.00" fill="#000000">samples = 2922</text>
<text text-anchor="middle" x="414" y="-200.8" font-family="Helvetica,sans-Serif" font-size="14.00" fill="#000000">value = [1177, 1745]</text>
</g>
<!-- 0&#45;&gt;1 -->
<g id="edge1" class="edge">
<title>0&#45;&gt;1</title>
<path fill="none" stroke="#000000" d="M510.849,-296.9465C497.6713,-287.4293 483.2278,-276.9978 469.6103,-267.163"/>
<polygon fill="#000000" stroke="#000000" points="471.413,-264.1476 461.2569,-261.13 467.3145,-269.8223 471.413,-264.1476"/>
<text text-anchor="middle" x="465.2377" y="-282.111" font-family="Helvetica,sans-Serif" font-size="14.00" fill="#000000">True</text>
</g>
<!-- 8 -->
<g id="node9" class="node">
<title>8</title>
<polygon fill="#40a1e6" stroke="#000000" points="775,-261 643,-261 643,-193 775,-193 775,-261"/>
<text text-anchor="middle" x="709" y="-245.8" font-family="Helvetica,sans-Serif" font-size="14.00" fill="#000000">sugar &lt;= 0.204</text>
<text text-anchor="middle" x="709" y="-230.8" font-family="Helvetica,sans-Serif" font-size="14.00" fill="#000000">gini = 0.069</text>
<text text-anchor="middle" x="709" y="-215.8" font-family="Helvetica,sans-Serif" font-size="14.00" fill="#000000">samples = 2275</text>
<text text-anchor="middle" x="709" y="-200.8" font-family="Helvetica,sans-Serif" font-size="14.00" fill="#000000">value = [81, 2194]</text>
</g>
<!-- 0&#45;&gt;8 -->
<g id="edge8" class="edge">
<title>0&#45;&gt;8</title>
<path fill="none" stroke="#000000" d="M607.443,-296.9465C621.3917,-287.3395 636.6929,-276.8009 651.0903,-266.8848"/>
<polygon fill="#000000" stroke="#000000" points="653.1955,-269.6848 659.4459,-261.13 649.2249,-263.9198 653.1955,-269.6848"/>
<text text-anchor="middle" x="654.9144" y="-282.0159" font-family="Helvetica,sans-Serif" font-size="14.00" fill="#000000">False</text>
</g>
<!-- 2 -->
<g id="node3" class="node">
<title>2</title>
<polygon fill="#50a8e8" stroke="#000000" points="262,-157 130,-157 130,-89 262,-89 262,-157"/>
<text text-anchor="middle" x="196" y="-141.8" font-family="Helvetica,sans-Serif" font-size="14.00" fill="#000000">sugar &lt;= &#45;0.854</text>
<text text-anchor="middle" x="196" y="-126.8" font-family="Helvetica,sans-Serif" font-size="14.00" fill="#000000">gini = 0.184</text>
<text text-anchor="middle" x="196" y="-111.8" font-family="Helvetica,sans-Serif" font-size="14.00" fill="#000000">samples = 1054</text>
<text text-anchor="middle" x="196" y="-96.8" font-family="Helvetica,sans-Serif" font-size="14.00" fill="#000000">value = [108, 946]</text>
</g>
<!-- 1&#45;&gt;2 -->
<g id="edge2" class="edge">
<title>1&#45;&gt;2</title>
<path fill="none" stroke="#000000" d="M342.6186,-192.9465C319.7072,-182.0163 294.2683,-169.8803 271.099,-158.827"/>
<polygon fill="#000000" stroke="#000000" points="272.536,-155.6347 262.0034,-154.4879 269.5219,-161.9526 272.536,-155.6347"/>
</g>
<!-- 5 -->
<g id="node6" class="node">
<title>5</title>
<polygon fill="#f8dfcd" stroke="#000000" points="484,-157 344,-157 344,-89 484,-89 484,-157"/>
<text text-anchor="middle" x="414" y="-141.8" font-family="Helvetica,sans-Serif" font-size="14.00" fill="#000000">alcohol &lt;= 0.454</text>
<text text-anchor="middle" x="414" y="-126.8" font-family="Helvetica,sans-Serif" font-size="14.00" fill="#000000">gini = 0.49</text>
<text text-anchor="middle" x="414" y="-111.8" font-family="Helvetica,sans-Serif" font-size="14.00" fill="#000000">samples = 1868</text>
<text text-anchor="middle" x="414" y="-96.8" font-family="Helvetica,sans-Serif" font-size="14.00" fill="#000000">value = [1069, 799]</text>
</g>
<!-- 1&#45;&gt;5 -->
<g id="edge5" class="edge">
<title>1&#45;&gt;5</title>
<path fill="none" stroke="#000000" d="M414,-192.9465C414,-184.776 414,-175.9318 414,-167.3697"/>
<polygon fill="#000000" stroke="#000000" points="417.5001,-167.13 414,-157.13 410.5001,-167.13 417.5001,-167.13"/>
</g>
<!-- 3 -->
<g id="node4" class="node">
<title>3</title>
<polygon fill="#3c9fe5" stroke="#000000" points="116,-53 0,-53 0,0 116,0 116,-53"/>
<text text-anchor="middle" x="58" y="-37.8" font-family="Helvetica,sans-Serif" font-size="14.00" fill="#000000">gini = 0.032</text>
<text text-anchor="middle" x="58" y="-22.8" font-family="Helvetica,sans-Serif" font-size="14.00" fill="#000000">samples = 555</text>
<text text-anchor="middle" x="58" y="-7.8" font-family="Helvetica,sans-Serif" font-size="14.00" fill="#000000">value = [9, 546]</text>
</g>
<!-- 2&#45;&gt;3 -->
<g id="edge3" class="edge">
<title>2&#45;&gt;3</title>
<path fill="none" stroke="#000000" d="M147.3464,-88.9777C133.4657,-79.2713 118.3786,-68.7213 104.6223,-59.1018"/>
<polygon fill="#000000" stroke="#000000" points="106.4526,-56.1109 96.2517,-53.2485 102.4411,-61.8475 106.4526,-56.1109"/>
</g>
<!-- 4 -->
<g id="node5" class="node">
<title>4</title>
<polygon fill="#6ab5eb" stroke="#000000" points="258,-53 134,-53 134,0 258,0 258,-53"/>
<text text-anchor="middle" x="196" y="-37.8" font-family="Helvetica,sans-Serif" font-size="14.00" fill="#000000">gini = 0.318</text>
<text text-anchor="middle" x="196" y="-22.8" font-family="Helvetica,sans-Serif" font-size="14.00" fill="#000000">samples = 499</text>
<text text-anchor="middle" x="196" y="-7.8" font-family="Helvetica,sans-Serif" font-size="14.00" fill="#000000">value = [99, 400]</text>
</g>
<!-- 2&#45;&gt;4 -->
<g id="edge4" class="edge">
<title>2&#45;&gt;4</title>
<path fill="none" stroke="#000000" d="M196,-88.9777C196,-80.7364 196,-71.887 196,-63.5153"/>
<polygon fill="#000000" stroke="#000000" points="199.5001,-63.2484 196,-53.2485 192.5001,-63.2485 199.5001,-63.2484"/>
</g>
<!-- 6 -->
<g id="node7" class="node">
<title>6</title>
<polygon fill="#f0b78e" stroke="#000000" points="408,-53 276,-53 276,0 408,0 408,-53"/>
<text text-anchor="middle" x="342" y="-37.8" font-family="Helvetica,sans-Serif" font-size="14.00" fill="#000000">gini = 0.42</text>
<text text-anchor="middle" x="342" y="-22.8" font-family="Helvetica,sans-Serif" font-size="14.00" fill="#000000">samples = 1141</text>
<text text-anchor="middle" x="342" y="-7.8" font-family="Helvetica,sans-Serif" font-size="14.00" fill="#000000">value = [798, 343]</text>
</g>
<!-- 5&#45;&gt;6 -->
<g id="edge6" class="edge">
<title>5&#45;&gt;6</title>
<path fill="none" stroke="#000000" d="M388.6155,-88.9777C381.92,-80.0039 374.6865,-70.3089 367.961,-61.295"/>
<polygon fill="#000000" stroke="#000000" points="370.7427,-59.1704 361.9574,-53.2485 365.1323,-63.3565 370.7427,-59.1704"/>
</g>
<!-- 7 -->
<g id="node8" class="node">
<title>7</title>
<polygon fill="#afd7f4" stroke="#000000" points="558,-53 426,-53 426,0 558,0 558,-53"/>
<text text-anchor="middle" x="492" y="-37.8" font-family="Helvetica,sans-Serif" font-size="14.00" fill="#000000">gini = 0.468</text>
<text text-anchor="middle" x="492" y="-22.8" font-family="Helvetica,sans-Serif" font-size="14.00" fill="#000000">samples = 727</text>
<text text-anchor="middle" x="492" y="-7.8" font-family="Helvetica,sans-Serif" font-size="14.00" fill="#000000">value = [271, 456]</text>
</g>
<!-- 5&#45;&gt;7 -->
<g id="edge7" class="edge">
<title>5&#45;&gt;7</title>
<path fill="none" stroke="#000000" d="M441.4999,-88.9777C448.7533,-80.0039 456.5897,-70.3089 463.8756,-61.295"/>
<polygon fill="#000000" stroke="#000000" points="466.8153,-63.2258 470.3795,-53.2485 461.3712,-58.8255 466.8153,-63.2258"/>
</g>
<!-- 9 -->
<g id="node10" class="node">
<title>9</title>
<polygon fill="#50a9e8" stroke="#000000" points="771,-157 647,-157 647,-89 771,-89 771,-157"/>
<text text-anchor="middle" x="709" y="-141.8" font-family="Helvetica,sans-Serif" font-size="14.00" fill="#000000">pH &lt;= 0.238</text>
<text text-anchor="middle" x="709" y="-126.8" font-family="Helvetica,sans-Serif" font-size="14.00" fill="#000000">gini = 0.189</text>
<text text-anchor="middle" x="709" y="-111.8" font-family="Helvetica,sans-Serif" font-size="14.00" fill="#000000">samples = 529</text>
<text text-anchor="middle" x="709" y="-96.8" font-family="Helvetica,sans-Serif" font-size="14.00" fill="#000000">value = [56, 473]</text>
</g>
<!-- 8&#45;&gt;9 -->
<g id="edge9" class="edge">
<title>8&#45;&gt;9</title>
<path fill="none" stroke="#000000" d="M709,-192.9465C709,-184.776 709,-175.9318 709,-167.3697"/>
<polygon fill="#000000" stroke="#000000" points="712.5001,-167.13 709,-157.13 705.5001,-167.13 712.5001,-167.13"/>
</g>
<!-- 12 -->
<g id="node13" class="node">
<title>12</title>
<polygon fill="#3c9ee5" stroke="#000000" points="992,-157 860,-157 860,-89 992,-89 992,-157"/>
<text text-anchor="middle" x="926" y="-141.8" font-family="Helvetica,sans-Serif" font-size="14.00" fill="#000000">pH &lt;= 0.928</text>
<text text-anchor="middle" x="926" y="-126.8" font-family="Helvetica,sans-Serif" font-size="14.00" fill="#000000">gini = 0.028</text>
<text text-anchor="middle" x="926" y="-111.8" font-family="Helvetica,sans-Serif" font-size="14.00" fill="#000000">samples = 1746</text>
<text text-anchor="middle" x="926" y="-96.8" font-family="Helvetica,sans-Serif" font-size="14.00" fill="#000000">value = [25, 1721]</text>
</g>
<!-- 8&#45;&gt;12 -->
<g id="edge12" class="edge">
<title>8&#45;&gt;12</title>
<path fill="none" stroke="#000000" d="M775.2863,-195.2315C799.0482,-183.8433 826.0104,-170.9213 850.4952,-159.1866"/>
<polygon fill="#000000" stroke="#000000" points="852.2409,-162.2312 859.746,-154.753 849.2155,-155.9188 852.2409,-162.2312"/>
</g>
<!-- 10 -->
<g id="node11" class="node">
<title>10</title>
<polygon fill="#44a2e6" stroke="#000000" points="700,-53 576,-53 576,0 700,0 700,-53"/>
<text text-anchor="middle" x="638" y="-37.8" font-family="Helvetica,sans-Serif" font-size="14.00" fill="#000000">gini = 0.098</text>
<text text-anchor="middle" x="638" y="-22.8" font-family="Helvetica,sans-Serif" font-size="14.00" fill="#000000">samples = 329</text>
<text text-anchor="middle" x="638" y="-7.8" font-family="Helvetica,sans-Serif" font-size="14.00" fill="#000000">value = [17, 312]</text>
</g>
<!-- 9&#45;&gt;10 -->
<g id="edge10" class="edge">
<title>9&#45;&gt;10</title>
<path fill="none" stroke="#000000" d="M683.9681,-88.9777C677.4329,-80.0954 670.378,-70.5067 663.8036,-61.5711"/>
<polygon fill="#000000" stroke="#000000" points="666.4257,-59.229 657.6802,-53.2485 660.7874,-63.3775 666.4257,-59.229"/>
</g>
<!-- 11 -->
<g id="node12" class="node">
<title>11</title>
<polygon fill="#69b5eb" stroke="#000000" points="842,-53 718,-53 718,0 842,0 842,-53"/>
<text text-anchor="middle" x="780" y="-37.8" font-family="Helvetica,sans-Serif" font-size="14.00" fill="#000000">gini = 0.314</text>
<text text-anchor="middle" x="780" y="-22.8" font-family="Helvetica,sans-Serif" font-size="14.00" fill="#000000">samples = 200</text>
<text text-anchor="middle" x="780" y="-7.8" font-family="Helvetica,sans-Serif" font-size="14.00" fill="#000000">value = [39, 161]</text>
</g>
<!-- 9&#45;&gt;11 -->
<g id="edge11" class="edge">
<title>9&#45;&gt;11</title>
<path fill="none" stroke="#000000" d="M734.0319,-88.9777C740.5671,-80.0954 747.622,-70.5067 754.1964,-61.5711"/>
<polygon fill="#000000" stroke="#000000" points="757.2126,-63.3775 760.3198,-53.2485 751.5743,-59.229 757.2126,-63.3775"/>
</g>
<!-- 13 -->
<g id="node14" class="node">
<title>13</title>
<polygon fill="#3b9ee5" stroke="#000000" points="992,-53 860,-53 860,0 992,0 992,-53"/>
<text text-anchor="middle" x="926" y="-37.8" font-family="Helvetica,sans-Serif" font-size="14.00" fill="#000000">gini = 0.019</text>
<text text-anchor="middle" x="926" y="-22.8" font-family="Helvetica,sans-Serif" font-size="14.00" fill="#000000">samples = 1603</text>
<text text-anchor="middle" x="926" y="-7.8" font-family="Helvetica,sans-Serif" font-size="14.00" fill="#000000">value = [15, 1588]</text>
</g>
<!-- 12&#45;&gt;13 -->
<g id="edge13" class="edge">
<title>12&#45;&gt;13</title>
<path fill="none" stroke="#000000" d="M926,-88.9777C926,-80.7364 926,-71.887 926,-63.5153"/>
<polygon fill="#000000" stroke="#000000" points="929.5001,-63.2484 926,-53.2485 922.5001,-63.2485 929.5001,-63.2484"/>
</g>
<!-- 14 -->
<g id="node15" class="node">
<title>14</title>
<polygon fill="#48a4e7" stroke="#000000" points="1134,-53 1010,-53 1010,0 1134,0 1134,-53"/>
<text text-anchor="middle" x="1072" y="-37.8" font-family="Helvetica,sans-Serif" font-size="14.00" fill="#000000">gini = 0.13</text>
<text text-anchor="middle" x="1072" y="-22.8" font-family="Helvetica,sans-Serif" font-size="14.00" fill="#000000">samples = 143</text>
<text text-anchor="middle" x="1072" y="-7.8" font-family="Helvetica,sans-Serif" font-size="14.00" fill="#000000">value = [10, 133]</text>
</g>
<!-- 12&#45;&gt;14 -->
<g id="edge14" class="edge">
<title>12&#45;&gt;14</title>
<path fill="none" stroke="#000000" d="M977.4741,-88.9777C992.298,-79.1798 1008.4224,-68.5222 1023.0865,-58.8298"/>
<polygon fill="#000000" stroke="#000000" points="1025.1183,-61.6824 1031.5308,-53.2485 1021.2585,-55.8427 1025.1183,-61.6824"/>
</g>
</g>
</svg>
